<svg xmlns="http://www.w3.org/2000/svg" viewBox="0 -0.5 16 16" shape-rendering="crispEdges">
<metadata>Made with Pixels to Svg https://codepen.io/shshaw/pen/XbxvNj</metadata>
<path stroke="#ffffff" d="M5 0h2M9 0h2M4 1h2M10 1h2M4 2h8M5 3h6M0 4h2M14 4h2M0 5h3M6 5h4M13 5h3M1 6h2M4 6h8M13 6h2M3 7h3M10 7h3M3 8h1M6 8h4M12 8h1M0 9h2M4 9h1M6 9h4M11 9h1M14 9h2M0 10h2M3 10h2M6 10h4M11 10h2M14 10h2M3 11h2M6 11h4M11 11h2M3 12h2M6 12h4M11 12h2M1 13h2M4 13h1M6 13h4M11 13h1M13 13h2M0 14h3M4 14h2M7 14h2M10 14h2M13 14h3M0 15h2M5 15h1M7 15h2M10 15h1M14 15h2" />
</svg>