<svg xmlns="http://www.w3.org/2000/svg" viewBox="0 -0.5 16 16" shape-rendering="crispEdges">
<metadata>Made with Pixels to Svg https://codepen.io/shshaw/pen/XbxvNj</metadata>
<path stroke="#ffffff" d="M1 0h2M4 0h8M13 0h2M0 1h3M4 1h5M11 1h1M13 1h3M0 2h3M4 2h5M11 2h1M13 2h3M0 3h3M4 3h5M11 3h1M13 3h1M15 3h1M0 4h3M4 4h8M13 4h3M0 5h4M12 5h4M0 6h16M0 7h2M14 7h2M0 8h2M3 8h10M14 8h2M0 9h2M3 9h1M12 9h1M14 9h2M0 10h2M3 10h10M14 10h2M0 11h2M3 11h1M12 11h1M14 11h2M0 12h2M3 12h10M14 12h2M0 13h2M14 13h2M0 14h16M1 15h14" />
</svg>